<?xml version="1.0" standalone="no"?>
<!DOCTYPE svg PUBLIC "-//W3C//DTD SVG 20010904//EN"
 "http://www.w3.org/TR/2001/REC-SVG-20010904/DTD/svg10.dtd">
<svg version="1.0" xmlns="http://www.w3.org/2000/svg"
 width="1000.000000pt" height="1000.000000pt" viewBox="0 0 1000.000000 1000.000000"
 preserveAspectRatio="xMidYMid meet">
<metadata>
Created by potrace 1.11, written by Peter Selinger 2001-2013
</metadata>
<g transform="translate(0.000000,1000.000000) scale(0.100000,-0.100000)"
fill="#000000" stroke="none">
<path d="M3288 7805 c-1 -2 -43 -6 -92 -10 -194 -14 -415 -92 -587 -207 -97
-65 -235 -194 -298 -279 -43 -59 -331 -546 -331 -560 0 -5 -5 -9 -10 -9 -6 0
-9 -3 -8 -7 2 -7 -51 -105 -106 -193 -12 -19 -26 -44 -32 -55 -6 -11 -79 -137
-161 -280 -83 -143 -160 -276 -170 -295 -11 -19 -44 -75 -73 -125 -29 -49 -62
-108 -75 -130 -72 -128 -290 -504 -303 -525 -9 -14 -17 -27 -17 -30 0 -3 -13
-24 -28 -47 -15 -24 -27 -44 -27 -47 0 -2 -37 -66 -81 -142 -45 -77 -96 -164
-112 -194 -17 -30 -34 -56 -39 -58 -4 -2 -8 -8 -8 -13 0 -5 -34 -69 -77 -142
-42 -73 -97 -168 -122 -212 -25 -44 -51 -89 -58 -100 -7 -11 -16 -28 -19 -37
-3 -10 -10 -18 -15 -18 -5 0 -9 -4 -9 -9 0 -5 -18 -47 -40 -94 -22 -46 -40
-91 -40 -99 0 -8 -4 -18 -9 -23 -11 -13 -48 -166 -57 -240 -15 -116 -10 -288
11 -395 4 -23 7 -36 20 -95 16 -76 84 -237 138 -325 74 -122 179 -243 276
-320 24 -19 49 -40 55 -45 78 -72 359 -199 488 -220 18 -3 44 -7 58 -10 14 -2
50 -7 80 -11 57 -6 2718 -9 2725 -3 2 2 -20 19 -48 38 -112 75 -236 191 -331
309 l-53 67 -1134 1 c-624 0 -1152 4 -1174 8 -124 22 -299 99 -384 171 -56 47
-129 124 -162 170 -40 57 -113 195 -103 195 3 0 2 6 -4 13 -6 7 -13 24 -16 37
-3 14 -10 41 -16 60 -16 48 -22 274 -9 335 31 149 75 239 342 693 33 56 67
116 76 132 16 30 98 171 116 202 5 9 31 54 58 100 54 95 66 116 190 328 50 85
99 171 109 190 10 19 23 42 28 50 9 14 82 139 121 208 45 77 60 104 78 135 10
17 44 77 76 132 31 55 65 114 75 130 9 17 52 91 95 165 42 74 85 146 93 160 9
14 17 27 17 30 0 3 8 16 17 30 13 21 67 114 148 255 9 17 49 86 89 153 39 68
71 127 71 132 0 6 4 10 9 10 5 0 11 8 14 18 20 60 122 207 192 278 165 165
385 254 617 248 87 -2 235 -28 253 -45 5 -5 15 -9 23 -9 23 0 149 -67 206
-109 50 -38 137 -122 174 -171 28 -37 222 -369 222 -380 0 -6 5 -10 10 -10 6
0 10 -4 10 -9 0 -6 29 -60 65 -121 36 -61 76 -130 89 -153 13 -23 49 -86 80
-139 31 -54 81 -142 112 -195 31 -54 65 -111 74 -128 10 -16 39 -68 66 -115
26 -47 51 -87 54 -90 3 -3 18 -30 34 -60 16 -30 36 -63 44 -72 8 -10 11 -18 7
-18 -4 0 -1 -8 7 -17 8 -10 44 -70 80 -133 37 -63 76 -131 87 -150 12 -19 27
-46 34 -60 7 -14 25 -44 40 -67 15 -24 27 -45 27 -47 0 -3 20 -39 45 -79 25
-41 45 -78 45 -82 0 -4 8 -19 19 -33 10 -15 29 -47 43 -72 14 -25 67 -117 118
-205 52 -88 100 -171 107 -185 8 -14 27 -47 43 -75 17 -27 34 -59 40 -70 6
-11 19 -33 30 -50 11 -16 26 -43 35 -60 8 -16 25 -46 36 -65 12 -19 32 -53 44
-75 13 -22 45 -78 72 -125 58 -100 77 -145 101 -243 24 -90 25 -109 25 -232
-1 -93 -16 -182 -45 -260 -17 -45 -89 -189 -98 -195 -4 -3 -24 -26 -43 -52
-20 -26 -53 -63 -74 -82 -48 -45 -183 -140 -183 -129 0 4 -4 3 -8 -2 -17 -25
-180 -80 -267 -91 -75 -10 -351 -10 -427 -1 -32 4 -88 17 -125 29 -38 12 -71
21 -75 20 -5 -1 -8 3 -8 8 0 6 -7 10 -15 10 -15 0 -160 84 -181 104 -6 6 -26
25 -45 41 -46 41 -129 139 -129 154 0 6 -3 11 -8 11 -7 0 -21 25 -69 125 -38
78 -65 204 -66 310 -1 107 6 186 21 225 5 14 10 30 11 35 3 22 34 111 44 123
6 7 20 34 33 60 13 26 36 68 51 94 53 89 401 692 490 847 29 51 53 97 53 101
0 5 4 10 8 12 15 6 95 153 94 171 0 11 -9 31 -19 45 -9 15 -24 41 -33 57 -9
17 -27 48 -41 71 -13 23 -49 84 -79 138 -30 53 -57 96 -60 96 -7 0 -80 -130
-80 -141 0 -5 -4 -9 -10 -9 -5 0 -10 -4 -10 -9 0 -5 -28 -56 -61 -113 -34 -57
-72 -121 -84 -143 -31 -57 -62 -111 -152 -266 -44 -74 -83 -142 -87 -150 -4
-8 -12 -23 -19 -34 -17 -28 -78 -133 -102 -176 -11 -19 -56 -97 -100 -172
-111 -190 -123 -213 -161 -289 -57 -115 -105 -278 -119 -406 -6 -54 -7 -244
-1 -282 3 -14 7 -45 10 -70 4 -24 11 -62 17 -85 6 -22 12 -47 14 -55 10 -49
93 -243 107 -248 4 -2 8 -9 8 -15 0 -11 70 -123 105 -167 51 -65 209 -212 279
-260 64 -43 186 -111 206 -115 3 -1 22 -9 43 -18 87 -38 213 -68 347 -82 71
-8 3715 -8 3798 -1 363 34 713 240 916 540 90 132 186 361 202 480 3 22 8 57
11 76 9 69 10 260 1 312 -8 50 -28 151 -34 173 -2 6 -5 19 -7 30 -18 75 -135
323 -173 366 -8 9 -12 18 -9 21 3 3 -1 11 -10 18 -8 7 -15 19 -15 26 0 8 -3
14 -7 14 -5 0 -13 10 -19 23 -23 49 -59 112 -66 115 -5 2 -8 7 -8 12 0 7 -228
406 -314 550 -18 30 -44 75 -58 100 -33 61 -300 522 -318 550 -5 8 -18 31 -28
50 -22 41 -78 138 -92 160 -6 8 -16 26 -23 40 -7 14 -24 43 -37 65 -14 22 -32
52 -40 68 -8 15 -78 136 -155 269 -77 132 -152 261 -166 287 -14 25 -35 62
-47 81 -11 19 -41 71 -67 115 -25 44 -56 98 -69 120 -13 22 -64 111 -114 198
-82 142 -126 211 -172 271 -42 54 -191 191 -254 233 -39 26 -72 51 -74 56 -2
4 -10 7 -18 7 -8 0 -14 4 -14 10 0 5 -3 9 -7 8 -5 -1 -39 13 -78 31 -65 31
-156 67 -197 77 -173 42 -283 52 -453 40 -44 -4 -87 -8 -95 -11 -15 -4 -50
-11 -104 -21 -113 -21 -334 -128 -461 -224 -56 -42 -226 -224 -266 -285 -59
-89 -189 -313 -189 -326 0 -5 -4 -9 -8 -9 -4 0 -13 -12 -20 -27 -6 -16 -45
-84 -86 -153 -41 -69 -75 -131 -75 -137 -1 -7 -4 -13 -9 -13 -4 0 -18 -21 -32
-47 -13 -27 -41 -75 -60 -108 -51 -85 -52 -89 -24 -130 13 -20 24 -39 24 -42
0 -3 13 -27 29 -52 16 -25 40 -66 53 -91 13 -25 36 -64 51 -87 15 -24 27 -47
27 -53 0 -5 5 -10 10 -10 6 0 9 -5 8 -11 -2 -6 2 -13 7 -15 10 -4 27 22 68
101 12 22 24 42 27 45 4 3 24 37 45 75 20 39 41 75 45 80 9 11 37 61 83 145
16 30 36 62 43 71 8 8 14 18 14 22 0 3 15 32 34 64 30 51 220 379 257 443 8
13 19 30 24 36 6 7 21 27 35 45 171 224 490 349 780 306 104 -16 320 -96 320
-119 0 -5 6 -8 13 -8 31 0 187 -151 239 -232 59 -92 72 -113 73 -118 0 -3 26
-48 57 -100 161 -274 228 -392 228 -400 0 -6 4 -10 8 -10 4 0 13 -12 19 -27 7
-16 24 -48 39 -73 14 -25 69 -119 121 -210 53 -91 104 -177 114 -192 11 -15
19 -32 19 -37 0 -5 6 -16 13 -23 6 -7 22 -31 34 -53 30 -57 56 -103 90 -160
16 -27 33 -57 37 -65 4 -8 17 -31 29 -52 29 -48 85 -145 110 -188 11 -19 27
-46 37 -60 10 -14 19 -29 20 -35 2 -5 8 -19 15 -30 17 -27 232 -400 259 -447
11 -21 31 -55 43 -76 12 -20 34 -57 48 -82 34 -61 56 -98 81 -140 12 -19 33
-55 46 -80 44 -80 66 -118 92 -159 15 -22 26 -43 26 -46 0 -3 12 -24 27 -48
15 -23 28 -44 28 -47 0 -3 17 -33 38 -66 20 -34 37 -64 37 -67 0 -3 14 -26 30
-50 17 -25 30 -48 30 -52 0 -4 6 -21 14 -38 17 -39 43 -119 53 -167 15 -73 9
-292 -11 -365 -21 -81 -93 -239 -125 -274 -11 -13 -21 -27 -21 -30 0 -14 -110
-122 -170 -168 -103 -77 -255 -142 -375 -160 -62 -9 -2547 -8 -2552 1 -4 5 3
16 13 25 31 25 119 160 168 258 46 92 90 214 100 278 4 20 8 40 10 44 8 13 20
147 19 226 0 94 -8 180 -23 250 -6 28 -12 59 -14 70 -2 11 -12 40 -21 65 -9
25 -20 56 -24 70 -12 36 -83 178 -114 227 -15 24 -27 45 -27 47 0 2 -28 51
-61 108 -34 56 -71 119 -81 138 -61 108 -82 146 -87 150 -3 3 -16 23 -28 45
-11 22 -30 56 -41 75 -11 19 -41 73 -68 120 -26 47 -51 87 -54 90 -3 3 -13 21
-23 40 -34 65 -52 95 -58 100 -3 3 -8 10 -10 15 -4 9 -119 212 -139 245 -38
61 -140 243 -140 249 0 4 -5 12 -12 19 -11 11 -52 80 -96 162 -10 19 -49 86
-85 148 -37 62 -78 132 -91 155 -29 51 -69 120 -171 297 -43 74 -92 160 -108
190 -17 30 -34 57 -39 58 -4 2 -8 8 -8 12 0 8 -90 168 -129 230 -8 14 -16 27
-16 30 0 4 -130 229 -155 270 -6 8 -18 31 -29 51 -11 19 -46 71 -79 116 -216
290 -559 478 -910 499 -53 3 -102 7 -109 9 -6 2 -13 2 -15 0z"/>
</g>
</svg>
