<svg xmlns="http://www.w3.org/2000/svg" width="836.332" height="52.28" viewBox="0 0 836.332 52.28"><defs><style>.cls-1{fill:#fff;}</style></defs><title>pc</title><g id="レイヤー_2" data-name="レイヤー 2"><g id="keycopy"><g id="group"><path class="cls-1" d="M35.957,35.145l.069.209q-2.129,8.028-6.98,12.477T16.168,52.28A15.217,15.217,0,0,1,3.482,46.033Q-1.317,39.787.5,30.747l1.919-9.632Q4.407,11.064,9.991,5.532A18.861,18.861,0,0,1,23.811,0q7.852,0,12.3,4.9t3.472,12.826l-.07.175H31.384q.489-5.235-1.552-8.167T22.939,6.806q-4.293,0-7.608,4.01a22.566,22.566,0,0,0-4.538,10.216L8.839,30.725q-1.326,6.626.908,10.688a7.6,7.6,0,0,0,7.189,4.062,9.24,9.24,0,0,0,6.823-2.522,18.8,18.8,0,0,0,4.17-7.808Z"/><path class="cls-1" d="M60.309,30.468,56.122,51.547H47.746L57.9.733H75.561q7.434,0,11.237,3.909t2.409,10.889a14.686,14.686,0,0,1-3.281,7,17.221,17.221,0,0,1-6.526,4.45A8.168,8.168,0,0,1,84.181,31.5a12.964,12.964,0,0,1,.419,7.417l-.838,4.222a16.984,16.984,0,0,0-.366,4.433,5.029,5.029,0,0,0,1.134,3.176l-.174.8H75.77a4.83,4.83,0,0,1-.96-3.647,28.4,28.4,0,0,1,.647-4.833l.8-4.084q.8-4.152-.68-6.334T70.57,30.468Zm1.361-6.806h8.9a10.932,10.932,0,0,0,6.841-2.007,9.543,9.543,0,0,0,3.42-5.915q.8-4.083-.786-6.142T74.2,7.539H64.917Z"/><path class="cls-1" d="M132.65,28.688H112.2l-3.211,16.054h23.766l-1.36,6.805H99.286L109.442.733h31.863l-1.361,6.806H116.421L113.56,21.882h20.451Z"/><path class="cls-1" d="M173.511,39.681H155.573L149.43,51.547h-8.411L168.486.733h7.888l6.944,50.814h-8.445ZM159.238,32.6h13.471l-2.374-21.01-.209-.035Z"/><path class="cls-1" d="M234.406,7.539H220.34l-8.8,44.008h-8.34L212,7.539H197.935L199.3.733h36.47Z"/><path class="cls-1" d="M272.474,28.688H252.023l-3.211,16.054h23.767l-1.361,6.805H239.11L249.266.733h31.863l-1.361,6.806H256.246l-2.862,14.343h20.451Z"/><path class="cls-1" d="M327.978,52.047h-9.361l8.795-44.008H313.347L314.908.233H352.4l-1.559,7.806H336.772Zm-8.142-1h7.321l8.8-44.008h14.066l1.161-5.806h-35.45l-1.162,5.806h14.064Z"/><path class="cls-1" d="M392.676,52.047H383.35l4.328-21.672H368.211l-4.328,21.672h-9.361L364.878.233h9.361l-4.468,22.336h19.466L393.705.233h9.325Zm-8.108-1h7.287l9.957-49.814h-7.287l-4.467,22.336H368.551l4.468-22.336H365.7l-9.957,49.814h7.322l4.328-21.672h21.5Z"/><path class="cls-1" d="M442.437,52.047H409.309L419.664.233h32.884l-1.562,7.806H427.464L424.8,21.382h20.452l-1.562,7.806H423.241L420.23,44.242H444Zm-31.91-1h31.089l1.161-5.8H419.01l3.411-17.054h20.451l1.161-5.806h-20.45l3.061-15.343h23.522l1.161-5.806H420.484Z"/><path class="cls-1" d="M517.221,51.547h-8.342L495.9,15.182h-.209l-7.26,36.365h-8.341L490.244.733h8.341l12.982,36.331h.21L519.036.733h8.34Z"/><path class="cls-1" d="M568.238,28.688H547.787l-3.211,16.054h23.766l-1.36,6.805H534.874L545.03.733h31.863l-1.361,6.806H552.009l-2.861,14.343H569.6Z"/><path class="cls-1" d="M602.711,19.509,615.276.733h9.911l-18.462,25.2,10.854,25.616H607.563l-6.77-19.09-12.879,19.09H578l18.812-25.616L586.448.733h9.807Z"/><path class="cls-1" d="M671.947,7.539H657.881l-8.795,44.008h-8.34l8.8-44.008H635.476L636.837.733h36.47Z"/><path class="cls-1" d="M734.125,28.688H713.673l-3.211,16.054h23.767l-1.36,6.805H700.76L710.917.733H742.78l-1.362,6.806H717.9l-2.861,14.343h20.451Z"/><path class="cls-1" d="M759.384,30.468,755.2,51.547h-8.376L756.977.733h17.659q7.434,0,11.238,3.909t2.408,10.889a14.686,14.686,0,0,1-3.281,7,17.213,17.213,0,0,1-6.526,4.45,8.168,8.168,0,0,1,4.781,4.519,12.964,12.964,0,0,1,.419,7.417l-.838,4.222a16.984,16.984,0,0,0-.366,4.433,5.029,5.029,0,0,0,1.134,3.176l-.174.8h-8.586a4.835,4.835,0,0,1-.96-3.647,28.4,28.4,0,0,1,.647-4.833l.8-4.084q.8-4.152-.681-6.334t-5.009-2.181Zm1.362-6.806h8.9a10.932,10.932,0,0,0,6.841-2.007,9.538,9.538,0,0,0,3.42-5.915q.8-4.083-.785-6.142t-5.846-2.059h-9.283Z"/><path class="cls-1" d="M826.525,39.681H808.586l-6.142,11.866h-8.411L821.5.733h7.887l6.945,50.814h-8.446ZM812.251,32.6h13.471l-2.373-21.01-.209-.035Z"/></g></g></g></svg>