<svg xmlns="http://www.w3.org/2000/svg" viewBox="0 0 517 408.98"><defs><style>.cls-1{stroke:#000;}.cls-1,.cls-2{stroke-linejoin:round;stroke-width:5px;}.cls-2{fill:#bbb;stroke:#bbb;}</style></defs><title>アセット 1</title><g id="レイヤー_2" data-name="レイヤー 2"><g id="_10" data-name="10"><path class="cls-1" d="M174.77,368.46a16.17,16.17,0,0,0,0,22.84l3.17,3.17a16.16,16.16,0,0,0,22.87,0l3.57-3.6-26-26Z"/><path class="cls-1" d="M130.63,333.91a16.18,16.18,0,0,0,0,22.87l3.14,3.14a16.15,16.15,0,0,0,22.88,0s3.09-3.1,8.25-8.25h0l.11-.12-26-26Z"/><path class="cls-1" d="M100.06,286.59l-3.6,3.56a16.17,16.17,0,0,0,0,22.84l3.17,3.17a16.18,16.18,0,0,0,22.88,0l3.56-3.59Z"/><path class="cls-1" d="M404.6,2.5,338.14,69.71,289,85.87,273.29,91h0l-15.67,5.17h0l-115.4,38a15.55,15.55,0,0,0-5.27,3.14,12.79,12.79,0,0,0-2.06,2.29,13.57,13.57,0,0,0-1.63,2.65,15.93,15.93,0,0,0-1,10.84,10.69,10.69,0,0,0,.39,1.3l1.74,4.87a15.7,15.7,0,0,0,3.66,5.8v0a16.44,16.44,0,0,0,2.46,2,16,16,0,0,0,4.22,2,6.14,6.14,0,0,0,1.14.29,14.58,14.58,0,0,0,3.44.4,14.86,14.86,0,0,0,1.63-.1,10.52,10.52,0,0,0,1.45-.2,6.69,6.69,0,0,0,.72-.16,12.32,12.32,0,0,0,1.5-.43l50.78-11h0a5.64,5.64,0,0,1,1-.23,1.78,1.78,0,0,1,.39-.07l.1,0,88.68-19.22,39.86,39.85,6.61,6.64.17.18-.29-.06,73.55,73.52a108.24,108.24,0,0,0,28.07-55.11l4.26-23.45L514.5,112.4Z"/><path class="cls-2" d="M401.61,272.33,289.31,159.7l-78.38,17-1.41.32h-.16l-.63.13-49,10.67a33.7,33.7,0,0,1-7,1.34,30.52,30.52,0,0,1-3.44.2,35.51,35.51,0,0,1-33.41-23.53l-1.76-4.94a35.68,35.68,0,0,1,1.43-27.12,35.32,35.32,0,0,1,20.06-18.09l.23-.11.26-.06,49.8-16.38L226.09,86l-.21-.06.26-.09L177,69.71,113.63,3.78l-1.11-1.17h0l-.12-.12L2.5,112.4l64.86,67.44,4.28,23.45a108.11,108.11,0,0,0,30.07,57.2l11.84,11.81,26.05,26.05,13.28,13.31,26,26L192.24,351l26,26,24.83,24.83a15.71,15.71,0,0,0,11.16,4.65,16.34,16.34,0,0,0,3.34-.36,16,16,0,0,0,7.85-4.29l3.63-3.63a15.81,15.81,0,0,0,0-22.37L201.7,308.46a9.43,9.43,0,0,1,1.47-14.5,8.9,8.9,0,0,1,5-1.5,10.22,10.22,0,0,1,7.1,2.94l2.95,3,13.31,13.31L270.9,351l26,26,17.46,17.48a16.13,16.13,0,0,0,22.84,0l3.18-3.18a16.15,16.15,0,0,0,0-22.84L296.92,325l-13.36-13.32-26-26-13.35-13.32-3-2.94a9.67,9.67,0,0,1-.46-13.31l.23-.24a9.31,9.31,0,0,1,6.67-2.78h.07a9.3,9.3,0,0,1,6.61,2.75l3.18,3.17c3.36,3.41,8,8,13.31,13.35,7.56,7.56,16.59,16.63,26,26l13.35,13.35c9.26,9.26,18.32,18.29,26,26l22.25,22.25a16.14,16.14,0,0,0,22.87,0l3.17-3.14a16.22,16.22,0,0,0,0-22.87l-22.28-22.25-84.9-84.83a4.91,4.91,0,0,1-.2-7.11l3.24-3.24a9.46,9.46,0,0,1,13.32,0l81.86,81.86,6.22,6.22a19.77,19.77,0,0,0,13.93,5.8,17.61,17.61,0,0,0,10.18-3.14,18.31,18.31,0,0,0,7.75-16.86,19.21,19.21,0,0,0-5.79-11.78Z"/></g></g></svg>