<svg xmlns="http://www.w3.org/2000/svg" viewBox="0 0 518 410.48"><defs><style>.cls-1{fill:#bbb;}</style></defs><title>アセット 1</title><g id="レイヤー_2" data-name="レイヤー 2"><g id="_10" data-name="10"><path class="cls-1" d="M282.33,5.45,295,40.87,310.29,84,351.6,100l-19.46,45.75,67.18,189.61L341,356.16l-43.28,15.47,106,37.85L518,89.63ZM383,280.51,379.37,279l-6.55-18.4,15.29,5.73Zm15.23-42.6-38.18-13.44-6.55-18.34,49.78,17.61Z"/><path d="M253.73,0,0,90.62,114.23,410.48,368,319.86ZM102,193.83,77.45,128.39l67.64-24.15,24.57,65.44Zm12.67,30.91L250,176.44,255,190.63,119.75,238.94Zm15.2,42.55L265.16,219l5.06,14.18L135,281.47Zm15.2,42.59,135.28-48.31,5.07,14.19L150.16,324.07Z"/></g></g></svg>