<svg id="Layer_1" data-name="Layer 1" xmlns="http://www.w3.org/2000/svg" viewBox="0 0 1000 600"><defs><style>.cls-1{fill:#018db9;}</style></defs><title>Untitled-1</title><path class="cls-1" d="M955.84,391.05,777.9,82.86a126.09,126.09,0,0,0-218.4,0L512,165.11l24,41.61,59.5-103.06a84.48,84.48,0,0,1,146.34,0L919.81,411.85a84.5,84.5,0,0,1-73.18,126.74H602.9a129.43,129.43,0,0,0,15.53-21.44,124.79,124.79,0,0,0,0-126.1L440.5,82.86a124.8,124.8,0,0,0-109.2-63h0A124.83,124.83,0,0,0,222.09,82.86L44.16,391.05A126.1,126.1,0,0,0,153.37,580.19h261.7a145.74,145.74,0,0,1-44.41-41.6H153.37A84.5,84.5,0,0,1,80.19,411.85L258.13,103.66a84.48,84.48,0,0,1,146.34,0L582.4,411.85a84.5,84.5,0,0,1-73.17,126.74H490.77A84.5,84.5,0,0,1,417.6,411.85L488,289.93l-24-41.61-82.4,142.73a126.09,126.09,0,0,0,109.2,189.14H846.63A126.1,126.1,0,0,0,955.84,391.05Z"/></svg>